<svg width="489" height="161" viewBox="0 0 489 161" fill="none" xmlns="http://www.w3.org/2000/svg">
<path d="M112.967 139.488L60.1196 20.9368C60.1196 20.9368 70.5187 1.208 82.3725 0.0987863C95.5999 -1.13896 109.262 20.9368 109.262 20.9368C109.262 20.9368 123.617 -1.67146 137.071 0.0987863C148.615 1.61761 158.395 20.9368 158.395 20.9368L112.967 139.488Z" fill="#FF0000"/>
<path d="M121.091 159.983H102.789L93.1754 133.732H27.5459L17.9326 159.983H0L50.6549 29.4639H70.4362L121.091 159.983ZM60.0834 45.178L33.0921 118.942H87.6293L60.4531 45.178H60.0834Z" fill="white"/>
<path d="M120.718 159.983H102.601L54.2339 29.4639H72.1665L112.769 137.799H113.139L143.088 29.4639H161.205L190.97 137.799H191.339L217.406 29.4639H234.784L200.768 159.983H182.281L151.962 51.6485H151.592L120.718 159.983Z" fill="white"/>
<path d="M466.971 148.103H456.091V104.583H445.211V93.7034H456.091V71.9434H466.971V93.7034H488.731V104.583H466.971V148.103ZM488.731 158.983H466.971V148.103H488.731V158.983Z" fill="white"/>
<path d="M430.505 149.383H436.265V158.983H419.625V146.567C417.406 150.749 414.291 154.034 410.281 156.423C406.27 158.813 401.619 160.007 396.329 160.007C390.27 160.007 385.363 158.343 381.609 155.015C377.854 151.602 375.977 146.951 375.977 141.063C375.977 133.298 379.561 127.794 386.729 124.551C393.982 121.309 404.947 119.474 419.625 119.047V115.847C419.625 110.983 418.217 107.442 415.401 105.223C412.585 102.919 408.83 101.767 404.137 101.767C399.699 101.767 396.371 102.834 394.153 104.967C391.934 107.101 390.185 110.13 388.905 114.055L378.665 110.599C380.03 105.053 383.017 100.615 387.625 97.2875C392.233 93.8741 397.993 92.1675 404.905 92.1675C412.755 92.1675 418.985 94.2155 423.593 98.3115C428.201 102.407 430.505 108.637 430.505 116.999V149.383ZM398.633 150.407C402.643 150.407 406.185 149.383 409.257 147.335C412.329 145.287 414.761 142.557 416.553 139.143C418.345 135.645 419.369 131.933 419.625 128.007C412.286 128.178 406.313 128.605 401.705 129.287C397.182 129.97 393.598 131.25 390.953 133.127C388.393 134.919 387.113 137.565 387.113 141.063C387.113 143.965 388.179 146.269 390.313 147.975C392.446 149.597 395.219 150.407 398.633 150.407Z" fill="white"/>
<path d="M334.401 92.1675C340.716 92.1675 346.177 93.7461 350.785 96.9035C355.393 100.061 358.849 104.455 361.153 110.087C363.457 115.719 364.524 122.162 364.353 129.415H315.073C315.585 136.669 317.719 142.087 321.473 145.671C325.313 149.17 330.305 150.919 336.449 150.919C340.972 150.919 344.471 149.853 346.945 147.719C349.42 145.586 351.383 142.301 352.833 137.863L363.329 141.575C361.025 147.634 357.74 152.327 353.473 155.655C349.207 158.898 343.447 160.519 336.193 160.519C325.868 160.519 317.932 157.405 312.385 151.175C306.924 144.946 304.193 136.583 304.193 126.087C304.193 119.943 305.473 114.269 308.033 109.063C310.593 103.858 314.135 99.7621 318.657 96.7755C323.265 93.7035 328.513 92.1675 334.401 92.1675ZM334.401 101.767C329.623 101.767 325.484 103.431 321.985 106.759C318.572 110.002 316.396 114.482 315.457 120.199H353.089C352.236 114.311 350.145 109.789 346.817 106.631C343.575 103.389 339.436 101.767 334.401 101.767Z" fill="white"/>
<path d="M265.25 92.1675C270.882 92.1675 275.96 93.6181 280.482 96.5195C285.005 99.3355 288.546 103.346 291.106 108.551C293.666 113.671 294.946 119.559 294.946 126.215C294.946 132.871 293.666 138.802 291.106 144.007C288.546 149.213 285.005 153.266 280.482 156.167C276.045 159.069 271.01 160.519 265.378 160.519C261.197 160.519 257.314 159.495 253.73 157.447C250.146 155.399 247.288 152.541 245.154 148.871C245.24 151.431 245.282 154.802 245.282 158.983H234.402V68.6155H245.282V95.7515C245.282 97.4581 245.197 99.9328 245.026 103.175C247.16 99.7622 250.018 97.0741 253.602 95.1115C257.272 93.1488 261.154 92.1675 265.25 92.1675ZM264.226 150.919C269.944 150.919 274.552 148.658 278.05 144.135C281.634 139.527 283.426 133.469 283.426 125.959C283.426 121.266 282.616 117.085 280.994 113.415C279.373 109.746 277.112 106.887 274.21 104.839C271.309 102.791 267.981 101.767 264.226 101.767C260.557 101.767 257.272 102.791 254.37 104.839C251.469 106.887 249.208 109.746 247.586 113.415C245.965 117.085 245.154 121.309 245.154 126.087C245.154 130.951 245.965 135.261 247.586 139.015C249.208 142.77 251.469 145.714 254.37 147.847C257.272 149.895 260.557 150.919 264.226 150.919Z" fill="white"/>
</svg>
